<svg xmlns="http://www.w3.org/2000/svg"  viewBox="0 0 40 40" width="40px" height="40px"><path fill="#839cb2" d="M9.479,35.499c-1.463-2.748-2.652-5.809-3.473-8.954c-0.225-0.786-0.307-1.638-0.385-2.461 l-0.013-0.131c-0.139-1.092,0.064-1.297,0.924-1.643c1.762-0.67,9.382-2.807,9.459-2.828l3.504-0.981H17 c0.732,0,1.66-0.502,1.946-1.341l0.103-0.302l-0.23-0.22C18.181,16.026,17.5,14.9,17.5,13.571c0-2.548,1.234-4.071,2.429-4.071 c0.045,0.003,0.08,0.004,0.106,0.004c0.052,0,0.078-0.004,0.104-0.01C21.266,9.5,22.5,11.023,22.5,13.571 c0,1.329-0.681,2.455-1.318,3.065l-0.23,0.22l0.103,0.302C21.34,17.998,22.268,18.5,23,18.5c0.931,0,3.184-2.577,3.497-5.446 c0.194-1.98-0.093-4.75-0.601-7.288c0.997,2.564,1.597,4.403,1.597,7.233c0,2.079-0.771,3.989-1.023,4.617 c-0.046,0.113-0.076,0.193-0.089,0.232L26.175,18.5h2.988c1.549,0,2.734-1.038,3.022-2.643c0.345-2.522,0.002-5.222-0.543-7.575 c1.012,2.621,1.885,5.888,1.885,9.361c-0.059,0.714-0.201,0.792-0.904,0.86L20.504,18.5l3.504,0.981 c0.077,0.021,7.697,2.158,9.468,2.832c0.851,0.342,1.054,0.547,0.917,1.624l-0.015,0.146c-0.078,0.824-0.16,1.676-0.382,2.45 c-0.822,3.151-2.011,6.212-3.476,8.963c0.903-3.147,1.973-7.206,1.973-10.117l0.007-0.293c0.024-0.734,0.057-1.739-0.473-2.183 c-0.884-0.832-2.814-1.363-2.896-1.385l-1.42-0.385l0.892,1.171C29.034,22.87,29.5,23.68,29.5,24c0,2.607-1.746,6.605-3.288,9.627 C27.387,28.24,27.5,25.906,27.5,24c0-3.273-2.375-3.527-3.103-3.527c-0.293,0-0.483,0.035-0.483,0.035l-0.41,0.075L23.5,21v2.393 c0,6.546-1.845,11.107-3.5,11.107s-3.5-4.562-3.5-11.107v-2.81l-0.414-0.075c0,0-0.19-0.035-0.483-0.035 c-0.728,0-3.103,0.254-3.103,3.527c0,1.906,0.113,4.24,1.288,9.627C12.246,30.605,10.5,26.607,10.5,24 c0-0.355,0.535-1.222,0.897-1.697l0.894-1.171l-1.422,0.386c-0.082,0.022-2.013,0.553-2.918,1.404 c-0.508,0.425-0.476,1.43-0.451,2.164l0.007,0.293C7.507,28.291,8.576,32.351,9.479,35.499z M13.825,18.5l-0.206-0.651 c-0.013-0.04-0.043-0.119-0.089-0.232c-0.253-0.628-1.023-2.538-1.023-4.617c0-2.835,0.602-4.676,1.596-7.231 c-0.507,2.537-0.794,5.304-0.601,7.28C13.816,15.923,16.069,18.5,17,18.5H13.825z M7.329,18.5 c-0.655-0.065-0.798-0.144-0.858-0.897c0.001-3.465,0.876-6.727,1.89-9.343c-0.548,2.355-0.893,5.057-0.549,7.576 c0.291,1.626,1.477,2.664,3.025,2.664H7.329z"/><path fill="#66798f" d="M20.133,10.002C20.935,10.063,22,11.299,22,13.571c0,1.171-0.602,2.165-1.164,2.704l-0.46,0.441 l0.205,0.603c0.087,0.254,0.216,0.481,0.374,0.68h-1.909c0.158-0.199,0.287-0.426,0.374-0.68l0.205-0.603l-0.46-0.441 C18.602,15.736,18,14.743,18,13.571c0-2.261,1.054-3.496,1.855-3.568l0.017,0.003l0.089,0.003L20,10.012l0.039-0.002 C20.07,10.009,20.101,10.006,20.133,10.002 M26.992,13.124c-0.03,1.936-0.748,3.715-0.987,4.308 c-0.052,0.13-0.087,0.22-0.101,0.265L25.808,18h-1.124C25.756,16.874,26.784,14.961,26.992,13.124 M13.008,13.125 c0.205,1.833,1.234,3.748,2.309,4.875h-1.124l-0.097-0.303c-0.014-0.045-0.049-0.136-0.101-0.265 C13.755,16.838,13.038,15.06,13.008,13.125 M7.197,14.554c0.021,0.467,0.062,0.932,0.125,1.391C7.471,16.779,7.832,17.48,8.348,18 H7.379c-0.201-0.021-0.301-0.046-0.347-0.061c-0.016-0.046-0.042-0.146-0.06-0.338C6.974,16.562,7.056,15.543,7.197,14.554 M32.806,14.568c0.139,0.984,0.22,1.999,0.222,3.033c-0.017,0.192-0.044,0.292-0.06,0.338c-0.046,0.015-0.146,0.04-0.347,0.061 h-0.975c0.52-0.526,0.885-1.24,1.038-2.096C32.745,15.463,32.784,15.017,32.806,14.568 M20,18.878l3.873,1.085 c0.005,0.001,0.043,0.012,0.111,0.031c-0.082,0.009-0.136,0.018-0.155,0.021L23,20.158V21v2.393C23,29.769,21.194,34,20,34 s-3-4.231-3-10.607V21v-0.841l-0.829-0.144c-0.018-0.003-0.072-0.012-0.155-0.021c0.067-0.019,0.106-0.03,0.111-0.031L20,18.878 M12.596,21.553C12.227,22.16,12,22.963,12,24c0,1.374,0.058,2.967,0.518,5.728c-0.861-2.071-1.518-4.159-1.518-5.71 c0.027-0.226,0.406-0.9,0.796-1.413L12.596,21.553 M27.404,21.553l0.801,1.053C28.594,23.119,28.974,23.792,29,24 c0,1.558-0.656,3.649-1.517,5.722C27.942,26.964,28,25.373,28,24C28,22.963,27.773,22.16,27.404,21.553 M32.229,22.415 c0.442,0.142,0.805,0.265,1.05,0.358c0.679,0.273,0.72,0.29,0.613,1.131l-0.011,0.12c-0.077,0.805-0.156,1.638-0.373,2.394 c-0.3,1.149-0.649,2.287-1.043,3.401c0.316-1.583,0.528-3.123,0.528-4.441c0-0.077,0.003-0.171,0.007-0.277 c0.027-0.826,0.064-1.954-0.626-2.56C32.328,22.499,32.279,22.457,32.229,22.415 M7.769,22.417 c-0.05,0.041-0.097,0.082-0.143,0.125c-0.69,0.606-0.653,1.734-0.626,2.56c0.003,0.106,0.007,0.2,0.007,0.277 c0,1.317,0.212,2.855,0.527,4.436c-0.396-1.119-0.747-2.262-1.049-3.419c-0.21-0.733-0.29-1.566-0.366-2.371l-0.015-0.151 C6,23.063,6.041,23.047,6.703,22.78C6.952,22.685,7.32,22.561,7.769,22.417 M24,1c1.187,2.714,2.329,8.639,2,12 c-0.297,2.714-2.423,5-3,5c-0.566,0-1.271-0.411-1.473-1.002C22.282,16.275,23,15.014,23,13.571C23,10.778,21.57,9,20.071,9 C20.048,9,20.024,9.01,20,9.011C19.976,9.01,19.952,9,19.929,9C18.43,9,17,10.778,17,13.571c0,1.443,0.718,2.703,1.473,3.426 C18.271,17.589,17.566,18,17,18c-0.577,0-2.703-2.286-3-5c-0.329-3.361,0.812-9.286,2-12c-0.247,0.258-1.828,3.115-2.158,4.062 c-1.153,2.93-1.836,4.836-1.836,7.938c0,2.499,1.054,4.741,1.136,5c-0.741,0-1.647,0-2.306,0c-1.318,0-2.283-0.853-2.53-2.231 C7.457,9.542,11,2,11,2S5.972,9.161,5.972,17.643C6.055,18.677,6.423,18.914,7.329,19c0.247,0,8.528,0,8.528,0 s-7.698,2.156-9.51,2.846c-1.071,0.431-1.4,0.862-1.236,2.154c0.082,0.862,0.165,1.81,0.412,2.671 c0.988,3.791,2.511,7.503,4.488,10.778C10.341,37.966,10.671,38.483,11,39c-0.659-2.585-2.993-9.399-2.993-13.621 c0-0.517-0.124-1.748,0.287-2.093C9.118,22.51,11,22,11,22s-1,1.311-1,2c0,3.69,3.27,9.898,5,12.914c0,0,0.048,0,0.071,0.038 C13.215,29.312,13,26.413,13,24c0-2.717,1.787-3.027,2.603-3.027C15.844,20.973,16,21,16,21s0,1.737,0,2.393 C16,29.764,17.751,35,20,35s4-5.236,4-11.607C24,22.737,24,21,24,21s0.156-0.027,0.397-0.027C25.213,20.973,27,21.283,27,24 c0,2.413-0.215,5.312-2.071,12.952C24.952,36.914,25,36.914,25,36.914c1.73-3.016,5-9.224,5-12.914c0-0.689-1-2-1-2 s1.882,0.51,2.706,1.286c0.412,0.345,0.287,1.576,0.287,2.093c0,4.222-2.334,11.036-2.993,13.621 c0.329-0.517,0.659-1.034,0.988-1.551c1.977-3.274,3.5-6.986,4.488-10.778c0.247-0.862,0.329-1.81,0.412-2.671 c0.165-1.293-0.165-1.723-1.236-2.154C31.841,21.156,24.143,19,24.143,19s8.281,0,8.528,0c0.906-0.086,1.275-0.323,1.357-1.357 C34.028,9.161,29,2,29,2s3.543,7.542,2.694,13.769C31.447,17.147,30.481,18,29.163,18c-0.659,0-1.565,0-2.306,0 c0.082-0.259,1.136-2.501,1.136-5c0-3.102-0.683-5.008-1.836-7.938C25.828,4.115,24.247,1.258,24,1L24,1z M24.929,36.952 c-0.007,0.012-0.012,0.027-0.012,0.048C24.922,36.984,24.925,36.968,24.929,36.952L24.929,36.952z M15.071,36.952 c0.004,0.016,0.008,0.032,0.012,0.048C15.082,36.98,15.078,36.964,15.071,36.952L15.071,36.952z"/></svg>